<svg xmlns="http://www.w3.org/2000/svg" xmlns:xlink="http://www.w3.org/1999/xlink" version="1.1" id="Your_Icon" x="0px" y="0px" width="100px" height="100px" viewBox="0 0 100 100" enable-background="new 0 0 100 100" xml:space="preserve">
<g>
	<path fill="#000000" d="M82.079,65.458c-1.855,3.838-4.363,7.286-7.454,10.244l-1.361,1.307L89.1,78.393l-6.2-14.63L82.079,65.458z   "/>
	<path fill="#000000" d="M54.707,14.348c4.233,0.575,8.28,1.881,12.028,3.889l1.655,0.888L64.832,3.67L52.84,14.096L54.707,14.348z"/>
	<path fill="#000000" d="M44.944,14.348l1.868-0.254L34.824,3.67l-3.567,15.455l1.659-0.888   C36.665,16.231,40.71,14.922,44.944,14.348z"/>
	<path fill="#000000" d="M44.944,85.349c-4.234-0.574-8.279-1.884-12.029-3.889l-1.659-0.886l3.567,15.453l11.988-10.424   L44.944,85.349z"/>
	<path fill="#000000" d="M14.865,41.674L1.28,49.849l13.584,8.173l-0.333-1.852c-0.377-2.089-0.567-4.214-0.567-6.321   s0.19-4.235,0.567-6.321L14.865,41.674z"/>
	<path fill="#000000" d="M54.706,85.349l-1.867,0.255l11.987,10.425l3.568-15.454l-1.659,0.886   C62.992,83.465,58.94,84.774,54.706,85.349z"/>
	<path fill="#000000" d="M17.569,34.244c1.858-3.841,4.367-7.288,7.455-10.25l1.362-1.304l-15.834-1.38l6.197,14.629L17.569,34.244z   "/>
	<path fill="#000000" d="M25.027,75.701c-3.091-2.959-5.6-6.405-7.458-10.246l-0.821-1.697l-6.197,14.628l15.837-1.382   L25.027,75.701z"/>
	<path fill="#000000" d="M84.783,58.028l13.588-8.18l-13.585-8.174l0.334,1.855c0.377,2.091,0.566,4.215,0.566,6.319   c0,2.105-0.189,4.232-0.568,6.322L84.783,58.028z"/>
	<path fill="#000000" d="M74.628,23.995c3.088,2.961,5.596,6.409,7.455,10.25l0.82,1.695L89.1,21.311l-15.832,1.381L74.628,23.995z"/>
	<circle fill="#000000" cx="49.825" cy="49.848" r="29.885"/>
	<path fill="#000000" d="M58.44,0.99c-2.8-0.49-5.676-0.761-8.616-0.761c-2.939,0-5.813,0.271-8.612,0.76l8.613,7.491L58.44,0.99z"/>
	<path fill="#000000" d="M28.085,5.24c-5.229,2.553-9.935,6.003-13.935,10.142l11.364,0.992L28.085,5.24z"/>
	<path fill="#000000" d="M85.502,15.383c-3.998-4.138-8.704-7.586-13.931-10.14l2.566,11.131L85.502,15.383z"/>
	<path fill="#000000" d="M93.633,73.153c2.673-5.015,4.507-10.542,5.322-16.397l-9.776,5.883L93.633,73.153z"/>
	<path fill="#000000" d="M6.018,26.546C3.345,31.561,1.513,37.087,0.697,42.94l9.774-5.881L6.018,26.546z"/>
	<path fill="#000000" d="M93.633,26.545L89.18,37.062l9.775,5.879C98.14,37.087,96.306,31.56,93.633,26.545z"/>
	<path fill="#000000" d="M14.148,84.312c4,4.14,8.707,7.589,13.935,10.143l-2.569-11.134L14.148,84.312z"/>
	<path fill="#000000" d="M41.214,98.705c2.798,0.492,5.672,0.762,8.611,0.762c2.939,0,5.814-0.271,8.613-0.762l-8.612-7.486   L41.214,98.705z"/>
	<path fill="#000000" d="M71.565,94.456c5.228-2.553,9.933-6.001,13.932-10.139l-11.361-0.994L71.565,94.456z"/>
	<path fill="#000000" d="M6.018,73.15l4.455-10.513l-9.776-5.882C1.513,62.609,3.345,68.137,6.018,73.15z"/>
</g>
</svg>