<svg xmlns="http://www.w3.org/2000/svg" xmlns:xlink="http://www.w3.org/1999/xlink" version="1.1" x="0px" y="0px" width="100px" height="100px" viewBox="0 0 100 100" enable-background="new 0 0 100 100" xml:space="preserve">
<g id="Captions">
</g>
<g id="Your_Icon">
	<path d="M73.978,27.072c-0.316,0-0.634-0.119-0.877-0.359c-0.492-0.484-0.498-1.275-0.014-1.768l7.812-7.938   c0.484-0.49,1.276-0.499,1.768-0.014c0.492,0.484,0.498,1.275,0.014,1.768l-7.812,7.938C74.624,26.947,74.301,27.072,73.978,27.072   z"/>
	<path d="M73.978,27.072c-0.316,0-0.634-0.119-0.877-0.359c-0.492-0.484-0.498-1.275-0.014-1.768l7.812-7.938   c0.484-0.49,1.276-0.499,1.768-0.014c0.492,0.484,0.498,1.275,0.014,1.768l-7.812,7.938C74.624,26.947,74.301,27.072,73.978,27.072   z"/>
	<path d="M95.271,51.793H83.595c-0.69,0-1.25-0.56-1.25-1.25s0.56-1.25,1.25-1.25h11.676c0.69,0,1.25,0.56,1.25,1.25   S95.961,51.793,95.271,51.793z"/>
	<path d="M95.271,51.793H83.595c-0.69,0-1.25-0.56-1.25-1.25s0.56-1.25,1.25-1.25h11.676c0.69,0,1.25,0.56,1.25,1.25   S95.961,51.793,95.271,51.793z"/>
	<path d="M81.79,83.363c-0.323,0-0.646-0.124-0.891-0.373l-7.812-7.934c-0.484-0.492-0.479-1.283,0.014-1.768   s1.285-0.479,1.768,0.014l7.812,7.934c0.484,0.492,0.479,1.283-0.014,1.768C82.424,83.244,82.106,83.363,81.79,83.363z"/>
	<path d="M81.79,83.363c-0.323,0-0.646-0.124-0.891-0.373l-7.812-7.934c-0.484-0.492-0.479-1.283,0.014-1.768   s1.285-0.479,1.768,0.014l7.812,7.934c0.484,0.492,0.479,1.283-0.014,1.768C82.424,83.244,82.106,83.363,81.79,83.363z"/>
	<path d="M50.568,96.977c-0.69,0-1.25-0.56-1.25-1.25V83.883c0-0.69,0.56-1.25,1.25-1.25s1.25,0.56,1.25,1.25v11.844   C51.818,96.417,51.259,96.977,50.568,96.977z"/>
	<path d="M50.568,96.977c-0.69,0-1.25-0.56-1.25-1.25V83.883c0-0.69,0.56-1.25,1.25-1.25s1.25,0.56,1.25,1.25v11.844   C51.818,96.417,51.259,96.977,50.568,96.977z"/>
	<path d="M18.212,83.363c-0.317,0-0.633-0.119-0.877-0.359c-0.492-0.484-0.498-1.275-0.014-1.768l7.812-7.936   c0.484-0.491,1.275-0.499,1.768-0.014c0.492,0.484,0.498,1.275,0.014,1.768l-7.812,7.936   C18.858,83.238,18.536,83.363,18.212,83.363z"/>
	<path d="M18.212,83.363c-0.317,0-0.633-0.119-0.877-0.359c-0.492-0.484-0.498-1.275-0.014-1.768l7.812-7.936   c0.484-0.491,1.275-0.499,1.768-0.014c0.492,0.484,0.498,1.275,0.014,1.768l-7.812,7.936   C18.858,83.238,18.536,83.363,18.212,83.363z"/>
	<path d="M16.41,51.793H4.729c-0.69,0-1.25-0.56-1.25-1.25s0.56-1.25,1.25-1.25h11.68c0.69,0,1.25,0.56,1.25,1.25   S17.1,51.793,16.41,51.793z"/>
	<path d="M16.41,51.793H4.729c-0.69,0-1.25-0.56-1.25-1.25s0.56-1.25,1.25-1.25h11.68c0.69,0,1.25,0.56,1.25,1.25   S17.1,51.793,16.41,51.793z"/>
	<path d="M26.025,27.074c-0.323,0-0.646-0.125-0.891-0.373l-7.812-7.939c-0.484-0.492-0.478-1.284,0.014-1.768   c0.493-0.485,1.285-0.477,1.768,0.014l7.812,7.939c0.484,0.492,0.478,1.284-0.014,1.768C26.658,26.955,26.341,27.074,26.025,27.074   z"/>
	<path d="M26.025,27.074c-0.323,0-0.646-0.125-0.891-0.373l-7.812-7.939c-0.484-0.492-0.478-1.284,0.014-1.768   c0.493-0.485,1.285-0.477,1.768,0.014l7.812,7.939c0.484,0.492,0.478,1.284-0.014,1.768C26.658,26.955,26.341,27.074,26.025,27.074   z"/>
	<path d="M50,75.461c-13.902,0-25.212-11.422-25.212-25.461c0-14.04,11.31-25.463,25.212-25.463   c13.902,0,25.212,11.423,25.212,25.463C75.212,64.039,63.902,75.461,50,75.461z M50,27.037c-12.523,0-22.712,10.301-22.712,22.963   c0,12.661,10.188,22.961,22.712,22.961S72.712,62.661,72.712,50C72.712,37.338,62.523,27.037,50,27.037z"/>
	<path d="M50.568,17.365c-0.69,0-1.25-0.56-1.25-1.25V4.273c0-0.69,0.56-1.25,1.25-1.25s1.25,0.56,1.25,1.25v11.842   C51.818,16.806,51.259,17.365,50.568,17.365z"/>
	<path d="M50.568,17.365c-0.69,0-1.25-0.56-1.25-1.25V4.273c0-0.69,0.56-1.25,1.25-1.25s1.25,0.56,1.25,1.25v11.842   C51.818,16.806,51.259,17.365,50.568,17.365z"/>
</g>
</svg>